<svg width="0" height="0" class="hidden">

  <symbol fill="none" xmlns="http://www.w3.org/2000/svg" viewBox="0 0 18 18" id="search">
    <path d="M17 17L12.62 12.534M1 7.85003C1 11.6332 4.00775 14.7001 7.71799 14.7001C11.4282 14.7001 14.436 11.6332 14.436 7.85003C14.436 4.06686 11.4282 1 7.71799 1C4.00775 1 1 4.06686 1 7.85003Z" stroke="#222222" stroke-width="1.5" stroke-miterlimit="10" stroke-linecap="round" stroke-linejoin="round"></path>
  </symbol>

  <symbol fill="currentColor" xmlns="http://www.w3.org/2000/svg" viewBox="0 0 32 32" id="tg">
    <path d="M29.919 6.163l-4.225 19.925c-0.319 1.406-1.15 1.756-2.331 1.094l-6.438-4.744-3.106 2.988c-0.344 0.344-0.631 0.631-1.294 0.631l0.463-6.556 11.931-10.781c0.519-0.462-0.113-0.719-0.806-0.256l-14.75 9.288-6.35-1.988c-1.381-0.431-1.406-1.381 0.288-2.044l24.837-9.569c1.15-0.431 2.156 0.256 1.781 2.013z"></path>
  </symbol>

  <symbol fill="none" xmlns="http://www.w3.org/2000/svg" viewBox="0 0 50 50" id="user">
    <rect width="50" height="50" rx="25" fill="#0B4D9E"></rect>
    <path d="M31.1538 19.8667C31.1538 23.1014 28.3931 25.7333 25 25.7333C21.6069 25.7333 18.8462 23.1014 18.8462 19.8667C18.8462 16.6319 21.6069 14 25 14C28.3931 14 31.1538 16.6319 31.1538 19.8667ZM21.0823 26.4887C19.2767 27.2212 17.7372 28.4442 16.6556 30.0051C15.574 31.566 14.9982 33.3959 15 35.2667C15 35.4612 15.081 35.6477 15.2253 35.7852C15.3696 35.9227 15.5652 36 15.7692 36M34.2308 36C34.4348 36 34.6304 35.9227 34.7747 35.7852C34.919 35.6477 35 35.4612 35 35.2667C35 31.4372 32.6123 27.992 28.9177 26.4887C28.8182 26.4477 28.7106 26.4274 28.6022 26.4293C28.4938 26.4312 28.3871 26.4552 28.2892 26.4997C27.2596 26.9588 26.1367 27.1967 25 27.1967C23.8633 27.1967 22.7404 26.9588 21.7108 26.4997C21.6129 26.4552 21.5062 26.4312 21.3978 26.4293C21.2894 26.4274 21.1818 26.4477 21.0823 26.4887C19.2767 27.2212 17.7372 28.4442 16.6556 30.0051C15.574 31.566 14.9982 33.3959 15 35.2667C15 35.4612 15.081 35.6477 15.2253 35.7852C15.3696 35.9227 15.5652 36 15.7692 36H34.2308Z" fill="white"></path>
  </symbol>

  <symbol fill="currentColor" xmlns="http://www.w3.org/2000/svg" viewBox="0 0 24 24" id="vk">
    <path d="M23.8727 17.6435C23.8437 17.5795 23.8166 17.5264 23.7914 17.4838C23.375 16.7171 22.5793 15.7759 21.4047 14.6601L21.3799 14.6346L21.3675 14.6221L21.3549 14.6092H21.3423C20.8092 14.0896 20.4716 13.7403 20.3303 13.5614C20.0716 13.2207 20.0137 12.8759 20.155 12.5264C20.2549 12.2624 20.6301 11.7048 21.2797 10.853C21.6213 10.4015 21.892 10.0397 22.0918 9.76708C23.5331 7.80801 24.1579 6.55614 23.9662 6.01098L23.8918 5.88358C23.8418 5.80688 23.7127 5.73671 23.5046 5.67272C23.2961 5.60887 23.0296 5.59831 22.7047 5.64086L19.106 5.66628C19.0477 5.64516 18.9644 5.64713 18.856 5.67272L18.6935 5.71116L18.6308 5.74316L18.5811 5.7816C18.5395 5.80701 18.4936 5.85172 18.4436 5.91562C18.3938 5.97929 18.3522 6.05402 18.319 6.13918C17.9272 7.16977 17.4817 8.12796 16.9817 9.0137C16.6735 9.54186 16.3904 9.99959 16.1319 10.3872C15.8737 10.7746 15.6571 11.06 15.4823 11.243C15.3072 11.4262 15.1492 11.5729 15.0073 11.6837C14.8657 11.7946 14.7575 11.8415 14.6826 11.8243C14.6076 11.8072 14.5369 11.7902 14.47 11.7732C14.3534 11.6965 14.2597 11.5922 14.189 11.4602C14.118 11.3282 14.0702 11.162 14.0452 10.9619C14.0203 10.7616 14.0056 10.5893 14.0014 10.4444C13.9975 10.2998 13.9993 10.0951 14.0078 9.83111C14.0164 9.56697 14.0203 9.38824 14.0203 9.29454C14.0203 8.97083 14.0265 8.61952 14.0389 8.2405C14.0515 7.86148 14.0617 7.56118 14.0702 7.33995C14.0787 7.11849 14.0827 6.88419 14.0827 6.63718C14.0827 6.39017 14.068 6.19646 14.0389 6.05586C14.0099 5.91513 13.966 5.77804 13.908 5.64699C13.8496 5.51499 13.7641 5.41287 13.6519 5.34038C13.5394 5.26798 13.3996 5.21052 13.2333 5.16783C12.7917 5.06567 12.2294 5.01041 11.5462 5.00182C9.99681 4.98481 9.00124 5.08711 8.55972 5.30857C8.38478 5.40213 8.22648 5.52998 8.08494 5.6917C7.93495 5.87915 7.91402 5.98144 8.0223 5.99827C8.52221 6.07483 8.87611 6.25798 9.0844 6.54755L9.15946 6.70099C9.21784 6.8117 9.27614 7.00769 9.33448 7.28871C9.39273 7.56973 9.43033 7.88059 9.44687 8.22112C9.48845 8.84299 9.48845 9.37531 9.44687 9.81814C9.40516 10.2611 9.36577 10.606 9.32818 10.853C9.29058 11.1 9.23439 11.3002 9.15946 11.4535C9.0844 11.6068 9.03446 11.7005 9.00942 11.7345C8.98443 11.7685 8.9636 11.7899 8.94706 11.7983C8.8394 11.8408 8.72499 11.8625 8.60961 11.8624C8.49289 11.8624 8.35134 11.8027 8.18477 11.6834C8.01823 11.5641 7.8454 11.4002 7.66626 11.1915C7.48712 10.9827 7.28509 10.691 7.06009 10.3163C6.83526 9.9416 6.60198 9.49873 6.36039 8.9877L6.1605 8.6171C6.03555 8.37868 5.86486 8.03153 5.64825 7.57595C5.43152 7.12019 5.23995 6.67933 5.07342 6.25346C5.00685 6.07461 4.90684 5.93844 4.77357 5.84474L4.71103 5.8063C4.66945 5.77229 4.60271 5.73618 4.51115 5.69769C4.4187 5.65906 4.32228 5.63123 4.22373 5.61473L0.799884 5.64015C0.450012 5.64015 0.21262 5.72119 0.0876214 5.88304L0.0375958 5.9596C0.0126049 6.00225 0 6.07036 0 6.1641C0 6.25781 0.0249909 6.37281 0.0750165 6.50898C0.574835 7.71001 1.11838 8.86832 1.70564 9.98406C2.29291 11.0998 2.80323 11.9986 3.2363 12.6795C3.66946 13.361 4.11098 14.0042 4.56086 14.6087C5.01075 15.2135 5.30854 15.6011 5.45424 15.7713C5.60011 15.9419 5.71469 16.0694 5.79798 16.1546L6.11043 16.4612C6.31036 16.6656 6.60395 16.9105 6.99133 17.1957C7.3788 17.4812 7.80776 17.7622 8.27843 18.0392C8.74918 18.3158 9.29684 18.5415 9.9217 18.7161C10.5465 18.8908 11.1546 18.961 11.7461 18.9271H13.1831C13.4746 18.9014 13.6954 18.8077 13.8455 18.646L13.8952 18.5819C13.9286 18.5311 13.9599 18.4521 13.9888 18.3459C14.018 18.2394 14.0326 18.1221 14.0326 17.9945C14.024 17.6284 14.0513 17.2984 14.1136 17.0045C14.1759 16.7108 14.2469 16.4894 14.3263 16.3402C14.4056 16.1912 14.4952 16.0655 14.5948 15.9635C14.6947 15.8614 14.7659 15.7995 14.8076 15.7782C14.8491 15.7567 14.8822 15.7422 14.9072 15.7335C15.1072 15.6654 15.3425 15.7313 15.6135 15.9317C15.8842 16.1318 16.1382 16.379 16.3758 16.6727C16.6132 16.9667 16.8985 17.2965 17.2317 17.6627C17.565 18.029 17.8565 18.3013 18.1063 18.4804L18.3562 18.6337C18.523 18.736 18.7396 18.8297 19.0062 18.9149C19.2724 19 19.5056 19.0213 19.7058 18.9787L22.9046 18.9277C23.221 18.9277 23.4672 18.8742 23.6418 18.7679C23.8168 18.6614 23.9207 18.5441 23.9543 18.4166C23.9877 18.2888 23.9895 18.144 23.9606 17.982C23.931 17.8204 23.9018 17.7074 23.8727 17.6435Z"></path>
  </symbol>

  <symbol fill="none" xmlns="http://www.w3.org/2000/svg" viewBox="0 0 16 16" id="plus">
    <path d="M8 1V15M1 8H15" stroke="white" stroke-width="1.5" stroke-linecap="round" stroke-linejoin="round"></path>
  </symbol>

  <symbol fill="none" xmlns="http://www.w3.org/2000/svg" viewBox="0 0 24 24" id="minus">
    <path d="M6 12L18 12" stroke="#FFFFFF" stroke-width="2" stroke-linecap="round" stroke-linejoin="round"></path>
  </symbol>

  <symbol fill="none" xmlns="http://www.w3.org/2000/svg" viewBox="0 0 10 8" id="arrow-btn">
    <path d="M0 4H9M9 4L6 0.5M9 4L6 7.5" stroke="white"></path>
  </symbol>

</svg>