<svg width="24" height="24" viewBox="0 0 24 24" fill="none" xmlns="http://www.w3.org/2000/svg">
<path d="M2.44066 11.8712L7.0407 13.5544L17.9629 6.35973C18.1215 6.25583 18.2836 6.48749 18.1472 6.62295L9.87858 14.8235L9.57143 19.4145C9.56642 19.4914 9.58321 19.5681 9.6196 19.6345C9.65599 19.7009 9.71024 19.7537 9.77517 19.7861C9.84009 19.8185 9.91263 19.8289 9.98314 19.8158C10.0537 19.8028 10.1188 19.767 10.17 19.7131L12.7157 17.0155L17.3701 20.8114C17.4854 20.9055 17.6208 20.9669 17.7639 20.9899C17.907 21.0128 18.0532 20.9966 18.1889 20.9427C18.3247 20.8888 18.4457 20.799 18.5407 20.6815C18.6358 20.564 18.7019 20.4226 18.7329 20.2703L21.9737 4.4156C22.1587 3.51127 21.3358 2.74778 20.5337 3.07873L2.4178 10.5535C1.84923 10.7883 1.86494 11.6603 2.44066 11.8712Z" fill="#D4D4D4" style="fill:#D4D4D4;fill:color(display-p3 0.8314 0.8314 0.8314);fill-opacity:1;"/>
</svg>
