<svg width="50" height="50" viewBox="0 0 50 50" fill="none" xmlns="http://www.w3.org/2000/svg">
<rect width="50" height="50" rx="25" fill="#0B4D9E" style="fill:#0B4D9E;fill:color(display-p3 0.0431 0.3020 0.6196);fill-opacity:1;"/>
<path d="M31.1538 19.8667C31.1538 23.1014 28.3931 25.7333 25 25.7333C21.6069 25.7333 18.8462 23.1014 18.8462 19.8667C18.8462 16.6319 21.6069 14 25 14C28.3931 14 31.1538 16.6319 31.1538 19.8667ZM21.0823 26.4887C19.2767 27.2212 17.7372 28.4442 16.6556 30.0051C15.574 31.566 14.9982 33.3959 15 35.2667C15 35.4612 15.081 35.6477 15.2253 35.7852C15.3696 35.9227 15.5652 36 15.7692 36M34.2308 36C34.4348 36 34.6304 35.9227 34.7747 35.7852C34.919 35.6477 35 35.4612 35 35.2667C35 31.4372 32.6123 27.992 28.9177 26.4887C28.8182 26.4477 28.7106 26.4274 28.6022 26.4293C28.4938 26.4312 28.3871 26.4552 28.2892 26.4997C27.2596 26.9588 26.1367 27.1967 25 27.1967C23.8633 27.1967 22.7404 26.9588 21.7108 26.4997C21.6129 26.4552 21.5062 26.4312 21.3978 26.4293C21.2894 26.4274 21.1818 26.4477 21.0823 26.4887C19.2767 27.2212 17.7372 28.4442 16.6556 30.0051C15.574 31.566 14.9982 33.3959 15 35.2667C15 35.4612 15.081 35.6477 15.2253 35.7852C15.3696 35.9227 15.5652 36 15.7692 36H34.2308Z" fill="white" style="fill:white;fill-opacity:1;"/>
</svg>
