<svg width="345" height="62" viewBox="0 0 345 62" fill="none" xmlns="http://www.w3.org/2000/svg">
<g clip-path="url(#clip0_6_78)">
<path d="M31.5953 9.57973C48.4784 3.25368 52.5431 10.167 38.1611 24.7172C55.6696 22.1876 48.8045 33.5748 26.54 48.7577C66.313 37.3705 78.9056 6.69441 51.2925 17.1259C73.8034 -2.48461 54.7315 -5.6023 31.5953 9.57973Z" fill="#FFA21A" style="fill:#FFA21A;fill:color(display-p3 1.0000 0.6353 0.1020);fill-opacity:1;"/>
<path d="M14.5745 58.3149C13.9243 58.4446 13.8865 59.3491 14.5278 59.5172C47.1025 68.055 74.2441 53.6519 66.6761 34.3244C66.5229 33.9331 66.0218 33.8089 65.6974 34.0759C48.6355 48.1185 37.0473 53.8316 14.5745 58.3149Z" fill="white" style="fill:white;fill-opacity:1;"/>
<path d="M30.3314 10.8438L24.0123 58.1353" stroke="white" style="stroke:white;stroke-opacity:1;" stroke-width="1.26381" stroke-linecap="round"/>
<path d="M23.6387 20.6689C21.1494 20.2308 16.5741 20.7079 12.9148 23.272C9.25439 25.8368 6.54687 26.6435 2.1905 25.8768M22.5527 26.8394C20.0634 26.4013 15.4881 26.8784 11.8288 29.4425C8.16843 32.0072 5.46091 32.814 1.10454 32.0473M21.4482 33.1157C18.9588 32.6776 14.3835 33.1547 10.7242 35.7187C7.06385 38.2835 4.35633 39.0903 -4.05694e-05 38.3236" stroke="#FFA21A" style="stroke:#FFA21A;stroke:color(display-p3 1.0000 0.6353 0.1020);stroke-opacity:1;" stroke-width="1.26381" stroke-linecap="round"/>
<path d="M91.7276 30.3739L86.3292 14.9124H86.2137C86.2394 15.2586 86.2693 15.7313 86.3035 16.3307C86.3377 16.9301 86.3676 17.5717 86.3933 18.2555C86.4189 18.9393 86.4317 19.5935 86.4317 20.2182V30.3739H83.6364V11.8607H87.9577L93.1509 26.6383H93.2278L98.6006 11.8607H102.909V30.3739H99.9727V20.0663C99.9727 19.5007 99.9812 18.8886 99.9983 18.2301C100.024 17.5717 100.05 16.947 100.075 16.356C100.109 15.7651 100.135 15.2923 100.152 14.9378H100.05L94.446 30.3739H91.7276Z" fill="white" style="fill:white;fill-opacity:1;"/>
<path d="M119.579 23.3333C119.579 24.4983 119.425 25.5324 119.118 26.4357C118.81 27.339 118.361 28.103 117.771 28.7277C117.181 29.344 116.472 29.8168 115.643 30.146C114.813 30.4668 113.877 30.6272 112.835 30.6272C111.86 30.6272 110.967 30.4668 110.155 30.146C109.342 29.8168 108.637 29.344 108.039 28.7277C107.449 28.103 106.992 27.339 106.667 26.4357C106.342 25.5324 106.179 24.4983 106.179 23.3333C106.179 21.7884 106.449 20.4799 106.987 19.4078C107.534 18.3272 108.312 17.5041 109.321 16.9385C110.33 16.3729 111.531 16.0901 112.924 16.0901C114.232 16.0901 115.386 16.3729 116.386 16.9385C117.387 17.5041 118.169 18.3272 118.733 19.4078C119.297 20.4884 119.579 21.7969 119.579 23.3333ZM109.283 23.3333C109.283 24.3548 109.407 25.2285 109.654 25.9545C109.911 26.6806 110.304 27.2377 110.834 27.6261C111.364 28.0059 112.048 28.1959 112.886 28.1959C113.724 28.1959 114.407 28.0059 114.937 27.6261C115.467 27.2377 115.856 26.6806 116.104 25.9545C116.352 25.2285 116.476 24.3548 116.476 23.3333C116.476 22.3118 116.352 21.4465 116.104 20.7374C115.856 20.0198 115.467 19.4753 114.937 19.1039C114.407 18.724 113.719 18.534 112.873 18.534C111.625 18.534 110.714 18.9477 110.142 19.775C109.569 20.6023 109.283 21.7884 109.283 23.3333Z" fill="white" style="fill:white;fill-opacity:1;"/>
<path d="M129.8 16.0901C131.484 16.0901 132.834 16.6979 133.852 17.9136C134.878 19.1292 135.39 20.9358 135.39 23.3333C135.39 24.9204 135.151 26.2585 134.672 27.3475C134.202 28.428 133.54 29.2469 132.685 29.8041C131.838 30.3528 130.851 30.6272 129.723 30.6272C129.005 30.6272 128.381 30.5343 127.851 30.3486C127.321 30.1629 126.867 29.9223 126.491 29.6268C126.115 29.3229 125.799 28.9937 125.542 28.6391H125.363C125.406 28.9768 125.444 29.3524 125.478 29.7661C125.521 30.1713 125.542 30.5428 125.542 30.8804V36.5914H122.516V16.356H124.978L125.401 18.2935H125.542C125.807 17.8967 126.128 17.5295 126.504 17.1918C126.889 16.8541 127.35 16.5882 127.889 16.394C128.436 16.1914 129.073 16.0901 129.8 16.0901ZM128.992 18.5214C128.163 18.5214 127.496 18.686 126.991 19.0152C126.496 19.336 126.132 19.8215 125.902 20.4715C125.679 21.1215 125.56 21.9362 125.542 22.9154V23.3333C125.542 24.3717 125.649 25.2539 125.863 25.9799C126.085 26.6974 126.449 27.2462 126.953 27.6261C127.466 27.9975 128.158 28.1832 129.03 28.1832C129.765 28.1832 130.372 27.9848 130.851 27.5881C131.338 27.1913 131.702 26.6257 131.941 25.8912C132.18 25.1568 132.3 24.2915 132.3 23.2953C132.3 21.7842 132.027 20.6108 131.479 19.775C130.941 18.9393 130.112 18.5214 128.992 18.5214Z" fill="white" style="fill:white;fill-opacity:1;"/>
<path d="M144.008 16.0901C145.273 16.0901 146.359 16.3476 147.265 16.8625C148.171 17.3775 148.868 18.1077 149.355 19.0532C149.842 19.9987 150.086 21.13 150.086 22.4469V24.0424H140.61C140.644 25.4016 141.012 26.4484 141.713 27.1829C142.422 27.9173 143.414 28.2845 144.687 28.2845C145.594 28.2845 146.406 28.2001 147.124 28.0313C147.85 27.854 148.598 27.5965 149.368 27.2588V29.6775C148.658 30.0067 147.936 30.2473 147.201 30.3993C146.466 30.5512 145.585 30.6272 144.559 30.6272C143.166 30.6272 141.939 30.3613 140.879 29.8294C139.828 29.2891 139.003 28.4871 138.404 27.4235C137.814 26.3598 137.52 25.0386 137.52 23.4599C137.52 21.8897 137.789 20.5559 138.327 19.4584C138.866 18.361 139.622 17.5252 140.597 16.9512C141.572 16.3771 142.708 16.0901 144.008 16.0901ZM144.008 18.3314C143.059 18.3314 142.29 18.6354 141.7 19.2432C141.118 19.851 140.777 20.7416 140.674 21.9151H147.137C147.128 21.2144 147.008 20.5939 146.778 20.0536C146.555 19.5133 146.213 19.0912 145.752 18.7873C145.299 18.4834 144.717 18.3314 144.008 18.3314Z" fill="white" style="fill:white;fill-opacity:1;"/>
<path d="M171.193 19.9523C171.193 20.7627 170.941 21.4254 170.437 21.9404C169.941 22.4469 169.257 22.7804 168.385 22.9408V23.0421C169.317 23.1603 170.095 23.4853 170.719 24.0171C171.343 24.549 171.655 25.2876 171.655 26.2331C171.655 27.0351 171.45 27.7485 171.039 28.3732C170.638 28.9894 169.997 29.4791 169.116 29.8421C168.244 30.1966 167.103 30.3739 165.692 30.3739H159.255V16.356H165.667C166.727 16.356 167.671 16.47 168.501 16.6979C169.338 16.9259 169.997 17.3015 170.475 17.8249C170.954 18.3483 171.193 19.0575 171.193 19.9523ZM168.513 26.1318C168.513 25.4396 168.244 24.9415 167.706 24.6376C167.176 24.3337 166.398 24.1817 165.372 24.1817H162.281V28.1832H165.436C166.393 28.1832 167.146 28.0271 167.693 27.7147C168.24 27.3939 168.513 26.8663 168.513 26.1318ZM168.129 20.2182C168.129 19.6695 167.919 19.2643 167.5 19.0026C167.081 18.7324 166.423 18.5974 165.526 18.5974H162.281V21.991H165.115C166.107 21.991 166.855 21.8517 167.359 21.5732C167.872 21.2861 168.129 20.8345 168.129 20.2182Z" fill="white" style="fill:white;fill-opacity:1;"/>
<path d="M187.094 23.3333C187.094 24.4983 186.94 25.5324 186.633 26.4357C186.325 27.339 185.876 28.103 185.286 28.7277C184.696 29.344 183.987 29.8168 183.158 30.146C182.328 30.4668 181.392 30.6272 180.349 30.6272C179.375 30.6272 178.482 30.4668 177.669 30.146C176.857 29.8168 176.152 29.344 175.554 28.7277C174.964 28.103 174.506 27.339 174.182 26.4357C173.857 25.5324 173.694 24.4983 173.694 23.3333C173.694 21.7884 173.964 20.4799 174.502 19.4078C175.049 18.3272 175.827 17.5041 176.836 16.9385C177.845 16.3729 179.046 16.0901 180.439 16.0901C181.747 16.0901 182.901 16.3729 183.901 16.9385C184.901 17.5041 185.684 18.3272 186.248 19.4078C186.812 20.4884 187.094 21.7969 187.094 23.3333ZM176.797 23.3333C176.797 24.3548 176.921 25.2285 177.169 25.9545C177.426 26.6806 177.819 27.2377 178.349 27.6261C178.879 28.0059 179.563 28.1959 180.401 28.1959C181.238 28.1959 181.922 28.0059 182.452 27.6261C182.982 27.2377 183.371 26.6806 183.619 25.9545C183.867 25.2285 183.991 24.3548 183.991 23.3333C183.991 22.3118 183.867 21.4465 183.619 20.7374C183.371 20.0198 182.982 19.4753 182.452 19.1039C181.922 18.724 181.234 18.534 180.388 18.534C179.14 18.534 178.229 18.9477 177.657 19.775C177.084 20.6023 176.797 21.7884 176.797 23.3333Z" fill="white" style="fill:white;fill-opacity:1;"/>
<path d="M194.442 16.0901C195.485 16.0901 196.421 16.2294 197.25 16.508C198.088 16.7781 198.751 17.1876 199.238 17.7363C199.725 18.285 199.969 18.9688 199.969 19.7877C199.969 20.6319 199.721 21.3072 199.225 21.8138C198.738 22.3118 198.075 22.6706 197.238 22.8901V23.0041C197.827 23.1476 198.362 23.3544 198.84 23.6246C199.319 23.8863 199.7 24.2408 199.982 24.6883C200.272 25.1272 200.418 25.6928 200.418 26.3851C200.418 27.1702 200.183 27.8835 199.712 28.5251C199.251 29.1667 198.541 29.6775 197.584 30.0574C196.626 30.4372 195.408 30.6272 193.929 30.6272C193.22 30.6272 192.544 30.5892 191.903 30.5132C191.271 30.4457 190.694 30.3486 190.172 30.222C189.651 30.0869 189.198 29.9265 188.813 29.7408V27.1829C189.403 27.4614 190.117 27.7147 190.954 27.9426C191.792 28.1621 192.69 28.2719 193.647 28.2719C194.357 28.2719 194.998 28.2086 195.571 28.0819C196.152 27.9469 196.609 27.7274 196.943 27.4235C197.285 27.1195 197.456 26.7143 197.456 26.2078C197.456 25.7435 197.306 25.3594 197.007 25.0555C196.708 24.7516 196.259 24.5279 195.66 24.3843C195.062 24.2324 194.305 24.1564 193.391 24.1564H191.698V21.9657H193.186C194.442 21.9657 195.425 21.8306 196.135 21.5605C196.853 21.2819 197.212 20.8007 197.212 20.1169C197.212 19.5429 196.96 19.1123 196.455 18.8253C195.951 18.5383 195.177 18.3948 194.134 18.3948C193.416 18.3948 192.707 18.475 192.006 18.6354C191.305 18.7873 190.604 19.0068 189.903 19.2938L188.954 17.1031C189.732 16.7908 190.565 16.546 191.454 16.3687C192.344 16.183 193.339 16.0901 194.442 16.0901Z" fill="white" style="fill:white;fill-opacity:1;"/>
<path d="M219.601 16.356V30.3739H216.806V22.3709C216.806 21.8475 216.819 21.3241 216.844 20.8007C216.87 20.2773 216.904 19.7792 216.947 19.3065H216.87L212.549 30.3739H210.176L205.894 19.2938H205.804C205.847 19.775 205.876 20.2731 205.894 20.7881C205.919 21.303 205.932 21.8602 205.932 22.4596V30.3739H203.137V16.356H207.343L211.395 26.8283L215.511 16.356H219.601Z" fill="white" style="fill:white;fill-opacity:1;"/>
<path d="M235.912 23.3333C235.912 24.4983 235.758 25.5324 235.451 26.4357C235.143 27.339 234.694 28.103 234.104 28.7277C233.514 29.344 232.805 29.8168 231.976 30.146C231.147 30.4668 230.21 30.6272 229.168 30.6272C228.193 30.6272 227.3 30.4668 226.488 30.146C225.675 29.8168 224.97 29.344 224.372 28.7277C223.782 28.103 223.325 27.339 223 26.4357C222.675 25.5324 222.512 24.4983 222.512 23.3333C222.512 21.7884 222.782 20.4799 223.32 19.4078C223.867 18.3272 224.645 17.5041 225.654 16.9385C226.663 16.3729 227.864 16.0901 229.257 16.0901C230.565 16.0901 231.719 16.3729 232.719 16.9385C233.72 17.5041 234.502 18.3272 235.066 19.4078C235.63 20.4884 235.912 21.7969 235.912 23.3333ZM225.616 23.3333C225.616 24.3548 225.74 25.2285 225.987 25.9545C226.244 26.6806 226.637 27.2377 227.167 27.6261C227.697 28.0059 228.381 28.1959 229.219 28.1959C230.057 28.1959 230.74 28.0059 231.27 27.6261C231.8 27.2377 232.189 26.6806 232.437 25.9545C232.685 25.2285 232.809 24.3548 232.809 23.3333C232.809 22.3118 232.685 21.4465 232.437 20.7374C232.189 20.0198 231.8 19.4753 231.27 19.1039C230.74 18.724 230.052 18.534 229.206 18.534C227.958 18.534 227.047 18.9477 226.475 19.775C225.902 20.6023 225.616 21.7884 225.616 23.3333Z" fill="white" style="fill:white;fill-opacity:1;"/>
<path d="M257.263 16.356L251.698 23.118L257.763 30.3739H254.455L248.646 23.2573V30.3739H245.838V23.2573L240.029 30.3739H236.721L242.786 23.118L237.221 16.356H240.414L245.838 23.156V16.356H248.646V23.156L254.083 16.356H257.263Z" fill="white" style="fill:white;fill-opacity:1;"/>
<path d="M262.482 16.356V21.991H269.125V16.356H272.151V30.3739H269.125V24.321H262.482V30.3739H259.456V16.356H262.482Z" fill="white" style="fill:white;fill-opacity:1;"/>
<path d="M288.5 23.3333C288.5 24.4983 288.347 25.5324 288.039 26.4357C287.731 27.339 287.282 28.103 286.692 28.7277C286.103 29.344 285.393 29.8168 284.564 30.146C283.735 30.4668 282.799 30.6272 281.756 30.6272C280.781 30.6272 279.888 30.4668 279.076 30.146C278.263 29.8168 277.558 29.344 276.96 28.7277C276.37 28.103 275.913 27.339 275.588 26.4357C275.263 25.5324 275.101 24.4983 275.101 23.3333C275.101 21.7884 275.37 20.4799 275.908 19.4078C276.455 18.3272 277.233 17.5041 278.242 16.9385C279.251 16.3729 280.452 16.0901 281.845 16.0901C283.153 16.0901 284.307 16.3729 285.308 16.9385C286.308 17.5041 287.09 18.3272 287.654 19.4078C288.218 20.4884 288.5 21.7969 288.5 23.3333ZM278.204 23.3333C278.204 24.3548 278.328 25.2285 278.576 25.9545C278.832 26.6806 279.225 27.2377 279.755 27.6261C280.285 28.0059 280.969 28.1959 281.807 28.1959C282.645 28.1959 283.329 28.0059 283.859 27.6261C284.389 27.2377 284.778 26.6806 285.025 25.9545C285.273 25.2285 285.397 24.3548 285.397 23.3333C285.397 22.3118 285.273 21.4465 285.025 20.7374C284.778 20.0198 284.389 19.4753 283.859 19.1039C283.329 18.724 282.64 18.534 281.794 18.534C280.546 18.534 279.636 18.9477 279.063 19.775C278.49 20.6023 278.204 21.7884 278.204 23.3333Z" fill="white" style="fill:white;fill-opacity:1;"/>
<path d="M297.156 30.6272C295.814 30.6272 294.652 30.3697 293.669 29.8547C292.685 29.3398 291.929 28.5505 291.399 27.4868C290.869 26.4231 290.604 25.0724 290.604 23.4346C290.604 21.7293 290.895 20.3364 291.476 19.2558C292.057 18.1753 292.861 17.3775 293.887 16.8625C294.921 16.3476 296.105 16.0901 297.438 16.0901C298.285 16.0901 299.05 16.1745 299.734 16.3434C300.426 16.5038 301.012 16.7021 301.49 16.9385L300.593 19.3192C300.071 19.1081 299.537 18.9308 298.99 18.7873C298.443 18.6438 297.917 18.572 297.413 18.572C296.584 18.572 295.891 18.7535 295.336 19.1165C294.788 19.4796 294.378 20.0198 294.105 20.7374C293.84 21.455 293.707 22.3456 293.707 23.4093C293.707 24.4392 293.844 25.3087 294.117 26.0179C294.391 26.7185 294.797 27.2504 295.336 27.6134C295.874 27.968 296.537 28.1452 297.323 28.1452C298.101 28.1452 298.798 28.0524 299.413 27.8667C300.029 27.6809 300.61 27.4403 301.157 27.1449V29.7281C300.619 30.032 300.041 30.2557 299.426 30.3993C298.811 30.5512 298.054 30.6272 297.156 30.6272Z" fill="white" style="fill:white;fill-opacity:1;"/>
<path d="M314.686 18.6987H310.018V30.3739H307.018V18.6987H302.376V16.356H314.686V18.6987Z" fill="white" style="fill:white;fill-opacity:1;"/>
<path d="M322.559 16.0901C323.825 16.0901 324.91 16.3476 325.816 16.8625C326.723 17.3775 327.419 18.1077 327.907 19.0532C328.394 19.9987 328.637 21.13 328.637 22.4469V24.0424H319.161C319.196 25.4016 319.563 26.4484 320.264 27.1829C320.974 27.9173 321.965 28.2845 323.239 28.2845C324.145 28.2845 324.957 28.2001 325.675 28.0313C326.402 27.854 327.15 27.5965 327.919 27.2588V29.6775C327.21 30.0067 326.488 30.2473 325.752 30.3993C325.017 30.5512 324.137 30.6272 323.111 30.6272C321.717 30.6272 320.491 30.3613 319.431 29.8294C318.379 29.2891 317.554 28.4871 316.956 27.4235C316.366 26.3598 316.071 25.0386 316.071 23.4599C316.071 21.8897 316.34 20.5559 316.879 19.4584C317.417 18.361 318.174 17.5252 319.149 16.9512C320.123 16.3771 321.26 16.0901 322.559 16.0901ZM322.559 18.3314C321.611 18.3314 320.841 18.6354 320.251 19.2432C319.67 19.851 319.328 20.7416 319.226 21.9151H325.688C325.68 21.2144 325.56 20.5939 325.329 20.0536C325.107 19.5133 324.765 19.0912 324.303 18.7873C323.85 18.4834 323.269 18.3314 322.559 18.3314Z" fill="white" style="fill:white;fill-opacity:1;"/>
<path d="M334.408 16.356V23.5106C334.408 23.7385 334.4 24.0298 334.383 24.3843C334.374 24.7305 334.357 25.0935 334.331 25.4734C334.306 25.8448 334.28 26.1867 334.254 26.4991C334.229 26.8114 334.207 27.0436 334.19 27.1955L341.333 16.356H345V30.3739H342.115V23.2953C342.115 22.9239 342.123 22.4933 342.14 22.0037C342.166 21.5141 342.192 21.0413 342.217 20.5855C342.252 20.1296 342.273 19.7835 342.282 19.5471L335.165 30.3739H331.51V16.356H334.408ZM343.936 10.4551C343.85 11.3246 343.611 12.0759 343.218 12.7091C342.833 13.3338 342.247 13.815 341.461 14.1527C340.674 14.4903 339.64 14.6592 338.358 14.6592C337.033 14.6592 335.985 14.4988 335.216 14.178C334.447 13.8488 333.891 13.3718 333.549 12.7471C333.207 12.1139 333.002 11.3499 332.934 10.4551H335.678C335.763 11.3921 336.011 12.0253 336.421 12.3545C336.832 12.6753 337.494 12.8357 338.409 12.8357C339.195 12.8357 339.824 12.6627 340.294 12.3165C340.773 11.9704 341.059 11.3499 341.153 10.4551H343.936Z" fill="white" style="fill:white;fill-opacity:1;"/>
<path d="M89.149 42.0133H90.7277L86.6472 47.1691L91.0556 52.6952H89.3733L85.0771 47.2763V52.6952H83.6364V42.0133H85.0771V47.1983L89.149 42.0133Z" fill="white" style="fill:white;fill-opacity:1;"/>
<path d="M100.916 47.3348C100.916 48.2119 100.816 48.9949 100.614 49.6836C100.413 50.3724 100.123 50.9539 99.743 51.4282C99.3634 51.9025 98.9033 52.2664 98.3626 52.5198C97.8278 52.7667 97.221 52.8902 96.5423 52.8902C95.9097 52.8902 95.3288 52.7667 94.7997 52.5198C94.2763 52.2664 93.822 51.9025 93.4366 51.4282C93.057 50.9539 92.7608 50.3724 92.548 49.6836C92.341 48.9949 92.2375 48.2119 92.2375 47.3348C92.2375 46.1652 92.4129 45.1711 92.7637 44.3524C93.1146 43.5272 93.6149 42.9002 94.2648 42.4714C94.9205 42.036 95.6998 41.8184 96.6027 41.8184C97.4654 41.8184 98.2189 42.036 98.863 42.4714C99.5129 42.9067 100.016 43.537 100.373 44.3621C100.735 45.1808 100.916 46.1717 100.916 47.3348ZM93.7213 47.3348C93.7213 48.1924 93.822 48.9364 94.0233 49.5667C94.2246 50.1969 94.5351 50.6843 94.955 51.0286C95.3748 51.373 95.9155 51.5452 96.5769 51.5452C97.2325 51.5452 97.7703 51.373 98.1901 51.0286C98.6157 50.6843 98.9292 50.1969 99.1304 49.5667C99.3317 48.9364 99.4324 48.1924 99.4324 47.3348C99.4324 46.4836 99.3317 45.7494 99.1304 45.1321C98.9292 44.5083 98.6186 44.0275 98.1987 43.6897C97.7789 43.3518 97.2354 43.1828 96.5682 43.1828C95.5847 43.1828 94.863 43.55 94.4028 44.2842C93.9485 45.0184 93.7213 46.0353 93.7213 47.3348Z" fill="white" style="fill:white;fill-opacity:1;"/>
<path d="M104.833 42.0133V46.4966H110.104V42.0133H111.536V52.6952H110.104V47.8708H104.833V52.6952H103.392V42.0133H104.833Z" fill="white" style="fill:white;fill-opacity:1;"/>
<path d="M120.085 42.0133H121.664L117.584 47.1691L121.992 52.6952H120.31L116.013 47.2763V52.6952H114.573V42.0133H116.013V47.1983L120.085 42.0133Z" fill="white" style="fill:white;fill-opacity:1;"/>
<path d="M122.208 42.0133H123.743L125.831 48.2119C125.952 48.5758 126.064 48.9267 126.167 49.2645C126.271 49.5959 126.363 49.9143 126.444 50.2197C126.524 50.5251 126.587 50.8207 126.633 51.1066H126.694C126.774 50.7817 126.889 50.3561 127.039 49.8298C127.188 49.297 127.349 48.7545 127.522 48.2022L129.497 42.0133H131.042L126.927 54.2644C126.708 54.9207 126.452 55.4924 126.159 55.9798C125.871 56.4671 125.52 56.8407 125.106 57.1006C124.692 57.367 124.192 57.5002 123.605 57.5002C123.335 57.5002 123.096 57.4807 122.889 57.4417C122.682 57.4092 122.504 57.3702 122.354 57.3247V56.0285C122.481 56.061 122.633 56.0902 122.812 56.1162C122.996 56.1422 123.185 56.1552 123.381 56.1552C123.738 56.1552 124.045 56.0772 124.304 55.9213C124.569 55.7718 124.796 55.5509 124.986 55.2585C125.175 54.9661 125.339 54.6185 125.477 54.2157L125.995 52.7147L122.208 42.0133Z" fill="white" style="fill:white;fill-opacity:1;"/>
<path d="M136.994 41.8184C138.173 41.8184 139.114 42.2764 139.815 43.1926C140.517 44.1087 140.868 45.4862 140.868 47.325C140.868 48.5401 140.707 49.5602 140.385 50.3854C140.063 51.2106 139.608 51.8343 139.022 52.2567C138.441 52.679 137.754 52.8902 136.96 52.8902C136.459 52.8902 136.02 52.8154 135.64 52.666C135.26 52.5166 134.935 52.3151 134.665 52.0617C134.395 51.8083 134.17 51.5322 133.992 51.2333H133.889C133.906 51.4867 133.926 51.7921 133.949 52.1495C133.978 52.5068 133.992 52.8187 133.992 53.0851V57.4709H132.551V42.0133H133.733L133.923 43.5922H133.992C134.176 43.2673 134.401 42.9717 134.665 42.7053C134.93 42.4324 135.252 42.218 135.631 42.062C136.017 41.8996 136.471 41.8184 136.994 41.8184ZM136.744 43.1828C136.089 43.1828 135.559 43.3258 135.157 43.6117C134.76 43.8976 134.47 44.3264 134.285 44.8982C134.101 45.4635 134.004 46.175 133.992 47.0326V47.3445C133.992 48.2477 134.078 49.0111 134.251 49.6349C134.429 50.2587 134.72 50.733 135.122 51.0579C135.531 51.3827 136.077 51.5452 136.761 51.5452C137.348 51.5452 137.837 51.3665 138.228 51.0091C138.619 50.6518 138.91 50.1547 139.099 49.5179C139.295 48.8747 139.393 48.1372 139.393 47.3055C139.393 46.045 139.174 45.0444 138.737 44.3037C138.306 43.5565 137.641 43.1828 136.744 43.1828Z" fill="white" style="fill:white;fill-opacity:1;"/>
<path d="M147.157 52.8902C146.306 52.8902 145.555 52.692 144.905 52.2956C144.255 51.8993 143.749 51.295 143.387 50.4828C143.025 49.6706 142.843 48.6473 142.843 47.4127C142.843 46.1197 143.033 45.0639 143.413 44.2452C143.798 43.42 144.327 42.8092 145 42.4129C145.673 42.0165 146.438 41.8184 147.295 41.8184C147.767 41.8184 148.221 41.8736 148.658 41.984C149.101 42.088 149.463 42.2212 149.745 42.3836L149.314 43.7384C149.026 43.6084 148.693 43.4915 148.313 43.3875C147.939 43.2836 147.588 43.2316 147.26 43.2316C146.605 43.2316 146.058 43.3908 145.621 43.7091C145.19 44.0275 144.865 44.4953 144.647 45.1126C144.434 45.7299 144.327 46.4901 144.327 47.3933C144.327 48.2574 144.431 48.9949 144.638 49.6057C144.851 50.2164 145.164 50.6843 145.578 51.0091C145.998 51.3275 146.521 51.4867 147.148 51.4867C147.649 51.4867 148.1 51.4282 148.503 51.3113C148.905 51.1878 149.271 51.0449 149.598 50.8824V52.3249C149.282 52.5068 148.928 52.6465 148.537 52.744C148.152 52.8414 147.692 52.8902 147.157 52.8902Z" fill="white" style="fill:white;fill-opacity:1;"/>
<path d="M160.218 52.8902C159.367 52.8902 158.616 52.692 157.967 52.2956C157.317 51.8993 156.811 51.295 156.448 50.4828C156.086 49.6706 155.905 48.6473 155.905 47.4127C155.905 46.1197 156.095 45.0639 156.474 44.2452C156.859 43.42 157.389 42.8092 158.061 42.4129C158.734 42.0165 159.499 41.8184 160.356 41.8184C160.828 41.8184 161.282 41.8736 161.719 41.984C162.162 42.088 162.525 42.2212 162.806 42.3836L162.375 43.7384C162.087 43.6084 161.754 43.4915 161.374 43.3875C161 43.2836 160.65 43.2316 160.322 43.2316C159.666 43.2316 159.12 43.3908 158.683 43.7091C158.251 44.0275 157.926 44.4953 157.708 45.1126C157.495 45.7299 157.389 46.4901 157.389 47.3933C157.389 48.2574 157.492 48.9949 157.699 49.6057C157.912 50.2164 158.225 50.6843 158.64 51.0091C159.059 51.3275 159.583 51.4867 160.21 51.4867C160.71 51.4867 161.161 51.4282 161.564 51.3113C161.967 51.1878 162.332 51.0449 162.66 50.8824V52.3249C162.343 52.5068 161.99 52.6465 161.599 52.744C161.213 52.8414 160.753 52.8902 160.218 52.8902Z" fill="white" style="fill:white;fill-opacity:1;"/>
<path d="M173.055 47.3348C173.055 48.2119 172.955 48.9949 172.753 49.6836C172.552 50.3724 172.262 50.9539 171.882 51.4282C171.502 51.9025 171.042 52.2664 170.502 52.5198C169.967 52.7667 169.36 52.8902 168.681 52.8902C168.049 52.8902 167.468 52.7667 166.939 52.5198C166.415 52.2664 165.961 51.9025 165.576 51.4282C165.196 50.9539 164.9 50.3724 164.687 49.6836C164.48 48.9949 164.376 48.2119 164.376 47.3348C164.376 46.1652 164.552 45.1711 164.903 44.3524C165.254 43.5272 165.754 42.9002 166.404 42.4714C167.059 42.036 167.839 41.8184 168.742 41.8184C169.604 41.8184 170.358 42.036 171.002 42.4714C171.652 42.9067 172.155 43.537 172.512 44.3621C172.874 45.1808 173.055 46.1717 173.055 47.3348ZM165.86 47.3348C165.86 48.1924 165.961 48.9364 166.162 49.5667C166.364 50.1969 166.674 50.6843 167.094 51.0286C167.514 51.373 168.054 51.5452 168.716 51.5452C169.371 51.5452 169.909 51.373 170.329 51.0286C170.755 50.6843 171.068 50.1969 171.269 49.5667C171.471 48.9364 171.571 48.1924 171.571 47.3348C171.571 46.4836 171.471 45.7494 171.269 45.1321C171.068 44.5083 170.758 44.0275 170.338 43.6897C169.918 43.3518 169.374 43.1828 168.707 43.1828C167.724 43.1828 167.002 43.55 166.542 44.2842C166.087 45.0184 165.86 46.0353 165.86 47.3348Z" fill="white" style="fill:white;fill-opacity:1;"/>
<path d="M184.736 56.3891H183.339V52.6952H175.531V42.0133H176.972V51.321H181.984V42.0133H183.416V51.3405H184.736V56.3891Z" fill="white" style="fill:white;fill-opacity:1;"/>
<path d="M187.954 42.0133V48.7285C187.954 48.8584 187.951 49.0274 187.945 49.2353C187.94 49.4367 187.931 49.6544 187.92 49.8883C187.908 50.1157 187.897 50.3366 187.885 50.5511C187.879 50.759 187.871 50.9312 187.859 51.0676L193.018 42.0133H194.778V52.6952H193.441V46.1457C193.441 45.9378 193.444 45.6714 193.449 45.3465C193.455 45.0216 193.464 44.7033 193.475 44.3914C193.487 44.073 193.495 43.8261 193.501 43.6507L188.36 52.6952H186.591V42.0133H187.954Z" fill="white" style="fill:white;fill-opacity:1;"/>
<path d="M201.36 41.8379C202.488 41.8379 203.324 42.1237 203.871 42.6955C204.417 43.2673 204.69 44.1802 204.69 45.4342V52.6952H203.647L203.371 51.1163H203.301C203.037 51.5062 202.761 51.8343 202.473 52.1007C202.186 52.3606 201.852 52.5588 201.473 52.6952C201.099 52.8252 200.639 52.8902 200.092 52.8902C199.517 52.8902 199.005 52.7765 198.557 52.5491C198.114 52.3216 197.763 51.9773 197.504 51.5159C197.251 51.0546 197.125 50.4698 197.125 49.7616C197.125 48.696 197.498 47.8773 198.246 47.3055C198.994 46.7337 200.132 46.4219 201.662 46.3699L203.293 46.2919V45.6389C203.293 44.7163 203.117 44.0698 202.767 43.6994C202.416 43.329 201.921 43.1439 201.283 43.1439C200.788 43.1439 200.317 43.2251 199.868 43.3875C199.419 43.55 198.994 43.7416 198.591 43.9625L198.151 42.7345C198.577 42.4876 199.066 42.2764 199.618 42.101C200.17 41.9256 200.751 41.8379 201.36 41.8379ZM203.276 47.4322L201.835 47.5005C200.656 47.5524 199.825 47.7701 199.342 48.1535C198.859 48.5368 198.617 49.0794 198.617 49.7811C198.617 50.3919 198.781 50.8434 199.109 51.1358C199.437 51.4282 199.871 51.5744 200.411 51.5744C201.251 51.5744 201.938 51.3113 202.473 50.785C203.008 50.2587 203.276 49.4692 203.276 48.4166V47.4322Z" fill="white" style="fill:white;fill-opacity:1;"/>
<path d="M214.732 52.6952H213.274V43.368H210.402C210.286 45.0509 210.14 46.4933 209.962 47.6954C209.789 48.8909 209.57 49.8688 209.306 50.629C209.047 51.3827 208.731 51.9383 208.357 52.2956C207.989 52.6465 207.549 52.8219 207.037 52.8219C206.882 52.8219 206.735 52.8122 206.597 52.7927C206.459 52.7732 206.341 52.7407 206.243 52.6952V51.4672C206.318 51.4932 206.396 51.5127 206.476 51.5257C206.562 51.5387 206.652 51.5452 206.744 51.5452C207.002 51.5452 207.238 51.425 207.451 51.1846C207.67 50.9377 207.865 50.5673 208.038 50.0735C208.216 49.5797 208.374 48.9559 208.512 48.2022C208.65 47.442 208.771 46.5486 208.875 45.522C208.984 44.4888 209.079 43.3193 209.159 42.0133H214.732V52.6952Z" fill="white" style="fill:white;fill-opacity:1;"/>
<path d="M219.192 46.4186H222.091C222.896 46.4186 223.566 46.5323 224.101 46.7597C224.636 46.9872 225.036 47.325 225.3 47.7734C225.571 48.2217 225.706 48.7772 225.706 49.44C225.706 50.1027 225.574 50.6778 225.309 51.1651C225.05 51.6524 224.648 52.0292 224.101 52.2956C223.561 52.562 222.862 52.6952 222.005 52.6952H217.752V42.0133H219.192V46.4186ZM224.265 49.5179C224.265 48.8617 224.058 48.4069 223.644 48.1535C223.236 47.8936 222.663 47.7636 221.927 47.7636H219.192V51.3795H221.936C222.626 51.3795 223.187 51.2365 223.618 50.9507C224.049 50.6583 224.265 50.1807 224.265 49.5179Z" fill="white" style="fill:white;fill-opacity:1;"/>
<path d="M229.614 42.0133V46.4966H234.885V42.0133H236.317V52.6952H234.885V47.8708H229.614V52.6952H228.173V42.0133H229.614Z" fill="white" style="fill:white;fill-opacity:1;"/>
<path d="M239.354 52.6952V42.0133H240.794V46.4186H243.383C244.188 46.4186 244.849 46.5323 245.367 46.7597C245.89 46.9872 246.278 47.325 246.531 47.7734C246.784 48.2217 246.911 48.7772 246.911 49.44C246.911 50.1027 246.784 50.6778 246.531 51.1651C246.284 51.6524 245.893 52.0292 245.358 52.2956C244.829 52.562 244.139 52.6952 243.288 52.6952H239.354ZM240.794 51.3795H243.15C243.863 51.3795 244.432 51.2365 244.858 50.9507C245.283 50.6648 245.496 50.1872 245.496 49.5179C245.496 48.8617 245.298 48.4069 244.901 48.1535C244.504 47.8936 243.935 47.7636 243.193 47.7636H240.794V51.3795ZM248.472 52.6952V42.0133H249.905V52.6952H248.472Z" fill="white" style="fill:white;fill-opacity:1;"/>
<path d="M255.184 47.2276L251.915 42.0133H253.554L256.047 46.1262L258.532 42.0133H260.153L256.884 47.2276L260.335 52.6952H258.695L256.047 48.3386L253.381 52.6952H251.759L255.184 47.2276Z" fill="white" style="fill:white;fill-opacity:1;"/>
<path d="M274.69 42.0133V52.6952H273.249V43.407H268.211V52.6952H266.77V42.0133H274.69Z" fill="white" style="fill:white;fill-opacity:1;"/>
<path d="M282.17 41.8184C283.349 41.8184 284.289 42.2764 284.991 43.1926C285.692 44.1087 286.043 45.4862 286.043 47.325C286.043 48.5401 285.882 49.5602 285.56 50.3854C285.238 51.2106 284.784 51.8343 284.197 52.2567C283.616 52.679 282.929 52.8902 282.135 52.8902C281.635 52.8902 281.195 52.8154 280.815 52.666C280.436 52.5166 280.111 52.3151 279.84 52.0617C279.57 51.8083 279.346 51.5322 279.167 51.2333H279.064C279.081 51.4867 279.101 51.7921 279.124 52.1495C279.153 52.5068 279.167 52.8187 279.167 53.0851V57.4709H277.727V42.0133H278.909L279.098 43.5922H279.167C279.351 43.2673 279.576 42.9717 279.84 42.7053C280.105 42.4324 280.427 42.218 280.806 42.062C281.192 41.8996 281.646 41.8184 282.17 41.8184ZM281.919 43.1828C281.264 43.1828 280.735 43.3258 280.332 43.6117C279.935 43.8976 279.645 44.3264 279.461 44.8982C279.277 45.4635 279.179 46.175 279.167 47.0326V47.3445C279.167 48.2477 279.254 49.0111 279.426 49.6349C279.604 50.2587 279.895 50.733 280.297 51.0579C280.706 51.3827 281.252 51.5452 281.937 51.5452C282.523 51.5452 283.012 51.3665 283.403 51.0091C283.794 50.6518 284.085 50.1547 284.275 49.5179C284.47 48.8747 284.568 48.1372 284.568 47.3055C284.568 46.045 284.349 45.0444 283.912 44.3037C283.481 43.5565 282.817 43.1828 281.919 43.1828Z" fill="white" style="fill:white;fill-opacity:1;"/>
<path d="M296.697 47.3348C296.697 48.2119 296.597 48.9949 296.395 49.6836C296.194 50.3724 295.904 50.9539 295.524 51.4282C295.145 51.9025 294.684 52.2664 294.144 52.5198C293.609 52.7667 293.002 52.8902 292.324 52.8902C291.691 52.8902 291.11 52.7667 290.581 52.5198C290.057 52.2664 289.603 51.9025 289.218 51.4282C288.838 50.9539 288.542 50.3724 288.329 49.6836C288.122 48.9949 288.019 48.2119 288.019 47.3348C288.019 46.1652 288.194 45.1711 288.545 44.3524C288.896 43.5272 289.396 42.9002 290.046 42.4714C290.702 42.036 291.481 41.8184 292.384 41.8184C293.247 41.8184 294 42.036 294.644 42.4714C295.294 42.9067 295.797 43.537 296.154 44.3621C296.516 45.1808 296.697 46.1717 296.697 47.3348ZM289.502 47.3348C289.502 48.1924 289.603 48.9364 289.804 49.5667C290.006 50.1969 290.316 50.6843 290.736 51.0286C291.156 51.373 291.697 51.5452 292.358 51.5452C293.014 51.5452 293.551 51.373 293.971 51.0286C294.397 50.6843 294.71 50.1969 294.912 49.5667C295.113 48.9364 295.214 48.1924 295.214 47.3348C295.214 46.4836 295.113 45.7494 294.912 45.1321C294.71 44.5083 294.4 44.0275 293.98 43.6897C293.56 43.3518 293.017 43.1828 292.349 43.1828C291.366 43.1828 290.644 43.55 290.184 44.2842C289.73 45.0184 289.502 46.0353 289.502 47.3348Z" fill="white" style="fill:white;fill-opacity:1;"/>
<path d="M302.814 41.8184C303.619 41.8184 304.309 42.0198 304.884 42.4226C305.46 42.8255 305.9 43.3908 306.204 44.1185C306.509 44.8397 306.662 45.6844 306.662 46.6525V47.6564H300.131C300.148 48.9104 300.424 49.8656 300.959 50.5218C301.494 51.1781 302.247 51.5062 303.219 51.5062C303.818 51.5062 304.347 51.4445 304.807 51.321C305.267 51.1976 305.744 51.0156 306.239 50.7752V52.1982C305.762 52.4386 305.287 52.614 304.815 52.7245C304.35 52.8349 303.797 52.8902 303.159 52.8902C302.25 52.8902 301.457 52.6823 300.778 52.2664C300.105 51.8441 299.582 51.2268 299.208 50.4146C298.834 49.6024 298.647 48.6083 298.647 47.4322C298.647 46.2822 298.817 45.288 299.156 44.4499C299.501 43.6052 299.984 42.9554 300.605 42.5006C301.232 42.0458 301.968 41.8184 302.814 41.8184ZM302.797 43.1439C302.032 43.1439 301.422 43.4265 300.968 43.9918C300.513 44.5571 300.243 45.3465 300.157 46.3601H305.16C305.155 45.7234 305.066 45.1646 304.893 44.6838C304.726 44.1965 304.47 43.8196 304.125 43.5532C303.78 43.2803 303.337 43.1439 302.797 43.1439Z" fill="white" style="fill:white;fill-opacity:1;"/>
<path d="M314.607 42.0133H316.186L312.105 47.1691L316.514 52.6952H314.831L310.535 47.2763V52.6952H309.094V42.0133H310.535V47.1983L314.607 42.0133Z" fill="white" style="fill:white;fill-opacity:1;"/>
<path d="M324.666 43.3875H321.552V52.6952H320.137V43.3875H317.066V42.0133H324.666V43.3875Z" fill="white" style="fill:white;fill-opacity:1;"/>
<path d="M334.691 47.3348C334.691 48.2119 334.59 48.9949 334.389 49.6836C334.187 50.3724 333.897 50.9539 333.517 51.4282C333.138 51.9025 332.678 52.2664 332.137 52.5198C331.602 52.7667 330.995 52.8902 330.317 52.8902C329.684 52.8902 329.103 52.7667 328.574 52.5198C328.051 52.2664 327.596 51.9025 327.211 51.4282C326.832 50.9539 326.535 50.3724 326.323 49.6836C326.115 48.9949 326.012 48.2119 326.012 47.3348C326.012 46.1652 326.187 45.1711 326.538 44.3524C326.889 43.5272 327.389 42.9002 328.039 42.4714C328.695 42.036 329.474 41.8184 330.377 41.8184C331.24 41.8184 331.993 42.036 332.637 42.4714C333.287 42.9067 333.791 43.537 334.147 44.3621C334.51 45.1808 334.691 46.1717 334.691 47.3348ZM327.496 47.3348C327.496 48.1924 327.596 48.9364 327.798 49.5667C327.999 50.1969 328.31 50.6843 328.729 51.0286C329.149 51.373 329.69 51.5452 330.351 51.5452C331.007 51.5452 331.545 51.373 331.965 51.0286C332.39 50.6843 332.704 50.1969 332.905 49.5667C333.106 48.9364 333.207 48.1924 333.207 47.3348C333.207 46.4836 333.106 45.7494 332.905 45.1321C332.704 44.5083 332.393 44.0275 331.973 43.6897C331.553 43.3518 331.01 43.1828 330.343 43.1828C329.359 43.1828 328.637 43.55 328.177 44.2842C327.723 45.0184 327.496 46.0353 327.496 47.3348Z" fill="white" style="fill:white;fill-opacity:1;"/>
<path d="M344.681 44.6935C344.681 45.3628 344.508 45.8858 344.163 46.2627C343.818 46.633 343.372 46.8832 342.826 47.0131V47.0911C343.418 47.1821 343.927 47.4225 344.353 47.8123C344.784 48.1957 345 48.7837 345 49.5764C345 50.1872 344.871 50.7265 344.612 51.1943C344.353 51.6621 343.947 52.0292 343.395 52.2956C342.843 52.562 342.124 52.6952 341.239 52.6952H337.167V42.0133H341.204C341.883 42.0133 342.481 42.101 342.999 42.2764C343.522 42.4454 343.933 42.7248 344.232 43.1146C344.531 43.5045 344.681 44.0308 344.681 44.6935ZM343.508 49.5764C343.508 48.9462 343.295 48.4913 342.869 48.2119C342.449 47.9325 341.837 47.7928 341.032 47.7928H338.607V51.3795H341.066C341.86 51.3795 342.464 51.243 342.878 50.9701C343.298 50.6908 343.508 50.2262 343.508 49.5764ZM343.223 44.8787C343.223 44.3719 343.059 43.995 342.731 43.7481C342.403 43.4947 341.866 43.368 341.118 43.368H338.607V46.4381H340.868C341.644 46.4381 342.231 46.3114 342.628 46.058C343.024 45.8046 343.223 45.4115 343.223 44.8787Z" fill="white" style="fill:white;fill-opacity:1;"/>
</g>
<defs>
<clipPath id="clip0_6_78">
<rect width="345" height="62" fill="white" style="fill:white;fill-opacity:1;"/>
</clipPath>
</defs>
</svg>
